<svg width="1440" height="900" viewBox="0 0 1440 900" fill="none" xmlns="http://www.w3.org/2000/svg">
  <defs>
    <linearGradient id="bgGradient" x1="0" y1="0" x2="1440" y2="900" gradientUnits="userSpaceOnUse">
      <stop offset="0" stop-color="#eef6ff" />
      <stop offset="1" stop-color="#f8fafc" />
    </linearGradient>
    <linearGradient id="cardGlow" x1="0" y1="0" x2="1" y2="1">
      <stop offset="0" stop-color="#60a5fa" stop-opacity="0.35" />
      <stop offset="1" stop-color="#2563eb" stop-opacity="0.12" />
    </linearGradient>
    <linearGradient id="accent" x1="0" y1="0" x2="1" y2="1">
      <stop offset="0" stop-color="#2563eb" />
      <stop offset="1" stop-color="#60a5fa" />
    </linearGradient>
  </defs>
  <rect width="1440" height="900" fill="url(#bgGradient)" />
  <path d="M0 0H1440V900H0V0Z" fill="url(#bgGradient)" />
  <ellipse cx="360" cy="170" rx="240" ry="160" fill="#60a5fa" fill-opacity="0.14" />
  <ellipse cx="1180" cy="120" rx="200" ry="120" fill="#2563eb" fill-opacity="0.10" />
  <ellipse cx="1080" cy="720" rx="320" ry="190" fill="#60a5fa" fill-opacity="0.08" />

  <rect x="120" y="190" width="340" height="240" rx="28" fill="white" opacity="0.95" />
  <rect x="160" y="240" width="260" height="18" rx="9" fill="#e2e8f0" />
  <rect x="160" y="275" width="180" height="16" rx="8" fill="#c7d2fe" />
  <rect x="160" y="310" width="260" height="16" rx="8" fill="#c7d2fe" />
  <circle cx="180" cy="360" r="16" fill="#2563eb" />
  <rect x="200" y="349" width="120" height="22" rx="11" fill="#e0f2fe" />

  <rect x="520" y="110" width="560" height="520" rx="36" fill="white" opacity="0.92" />
  <rect x="560" y="160" width="160" height="20" rx="10" fill="#dbeafe" />
  <rect x="560" y="200" width="420" height="18" rx="9" fill="#c7d2fe" />
  <rect x="560" y="236" width="320" height="18" rx="9" fill="#c7d2fe" />
  <rect x="560" y="272" width="250" height="18" rx="9" fill="#c7d2fe" />
  <path d="M560 340H840" stroke="#60a5fa" stroke-width="14" stroke-linecap="round" />
  <path d="M560 390H780" stroke="#60a5fa" stroke-width="14" stroke-linecap="round" />
  <path d="M560 440H700" stroke="#60a5fa" stroke-width="14" stroke-linecap="round" />
  <rect x="560" y="500" width="200" height="70" rx="20" fill="#f8fafc" />
  <rect x="590" y="528" width="120" height="18" rx="9" fill="#c7d2fe" />
  <circle cx="640" cy="570" r="10" fill="#2563eb" />

  <rect x="1120" y="240" width="200" height="280" rx="30" fill="white" opacity="0.92" />
  <rect x="1146" y="278" width="120" height="16" rx="8" fill="#c7d2fe" />
  <rect x="1146" y="310" width="80" height="16" rx="8" fill="#c7d2fe" />
  <circle cx="1160" cy="360" r="16" fill="#60a5fa" />
  <path d="M1170 360L1185 375L1210 345" stroke="white" stroke-width="4" stroke-linecap="round" stroke-linejoin="round" />
  <rect x="1146" y="400" width="160" height="16" rx="8" fill="#c7d2fe" />
  <rect x="1146" y="440" width="120" height="16" rx="8" fill="#c7d2fe" />

  <path d="M320 720C460 740 560 650 700 660C820 670 860 760 980 740C1080 720 1180 630 1320 650" stroke="url(#accent)" stroke-width="20" stroke-linecap="round" stroke-linejoin="round" opacity="0.55" />
  <rect x="100" y="620" width="140" height="100" rx="20" fill="#2563eb" fill-opacity="0.1" />
  <rect x="126" y="650" width="88" height="18" rx="9" fill="#60a5fa" />
  <rect x="126" y="686" width="108" height="18" rx="9" fill="#c7d2fe" />

  <circle cx="1050" cy="690" r="72" fill="#60a5fa" fill-opacity="0.12" />
  <path d="M1040 688L1060 708L1095 668" stroke="#2563eb" stroke-width="10" stroke-linecap="round" stroke-linejoin="round" />
  <rect x="880" y="620" width="220" height="140" rx="28" fill="#2563eb" fill-opacity="0.08" />
  <rect x="910" y="650" width="160" height="18" rx="9" fill="#dbeafe" />
  <rect x="910" y="690" width="90" height="18" rx="9" fill="#dbeafe" />

  <circle cx="330" cy="700" r="18" fill="#2563eb" opacity="0.4" />
  <circle cx="360" cy="760" r="14" fill="#60a5fa" opacity="0.4" />
  <circle cx="220" cy="770" r="12" fill="#60a5fa" opacity="0.3" />
</svg>
